<svg xmlns="http://www.w3.org/2000/svg" xmlns:xlink="http://www.w3.org/1999/xlink" version="1.1" width="250" height="250" viewBox="0 0 500 500" xml:space="preserve">
<desc>Created with Fabric.js 5.3.0</desc>
<defs>
</defs>
<g transform="matrix(1.3103717905 0 0 1.3103717983 184.7241638999 155.2298348965)" id="pp-g0PLLYakLwbHfP6gMJ"  >
<path style="stroke: rgb(0,0,0); stroke-width: 0; stroke-dasharray: none; stroke-linecap: butt; stroke-dashoffset: 0; stroke-linejoin: miter; stroke-miterlimit: 4; fill: rgb(0,0,0); fill-rule: nonzero; opacity: 1;"  transform=" translate(0, 0)" d="M -38.87385 81.35107 C -39.477309999999996 98.2877 -51.994389999999996 93.93223 -63.17317 87.78751000000001 C -74.35195 81.64279 -69.90652 75.60758000000001 -61.96131 51.03765000000001 C -54.016099999999994 26.467730000000014 -38.87385 -35.55876999999998 -38.87385 -35.55876999999998 C -38.87385 -35.55876999999998 -36.4081 -47.33958999999998 -16.956039999999998 -47.61355999999998 C -9.115509999999997 -47.72398999999998 -3.1177899999999976 -48.26526999999998 -2.2273799999999984 -25.66252999999998 C -1.3369699999999982 -3.0597899999999782 0.8521800000000015 14.304250000000021 0.8521800000000015 14.304250000000021 C 0.8521800000000015 14.304250000000021 11.25695 -7.171259999999979 22.75862 -42.716569999999976 C 34.26029 -78.26187999999998 37.26678 -109.16813999999998 60.30424 -84.17951999999997 C 72.45917 -70.99511999999997 72.69961 -78.77816999999997 63.04208 -9.942549999999969 C 53.38455 58.89307000000004 62.153549999999996 60.88897000000003 40.03027 54.724590000000035 C 30.13899 51.96851000000004 24.8465 53.07251000000004 30.267000000000003 16.676290000000037 C 35.6875 -19.719929999999962 38.386430000000004 -29.65896999999996 38.386430000000004 -29.65896999999996 C 38.386430000000004 -29.65896999999996 13.523420000000005 41.094450000000045 4.961770000000001 60.478020000000036 C 0.7277700000000014 70.06380000000004 -15.92756 60.67314000000004 -20.088919999999998 54.72460000000004 C -24.250279999999997 48.77605000000004 -25.449189999999998 12.806790000000035 -25.449189999999998 12.806790000000035 C -25.449189999999998 12.806790000000035 -37.82801 51.99884000000004 -38.87385 81.35108000000004 z" stroke-linecap="round" />
</g>
<g transform="matrix(0.476772766 0 0 0.4767727688 333.3086642212 168.1963077999)" id="nRW-Hcl6wgXG8_QJ9vYBB"  >
<g style=""   >
		<g transform="matrix(1 0 0 1 3.9275805534 39.0052552183)" id="C-dzb8MglQOyurlMEFbTM"  >
<path style="stroke: rgb(0,0,0); stroke-width: 1; stroke-dasharray: none; stroke-linecap: butt; stroke-dashoffset: 0; stroke-linejoin: miter; stroke-miterlimit: 4; fill: rgb(0,0,0); fill-rule: nonzero; opacity: 1;"  transform=" translate(0, 0)" d="M -154.74046 -129.77211 C -154.74046 -129.77211 -147.86228 -143.96819 -130.63621 -154.03355 C -113.41015 -164.09891 -120.45954 -178.03355 -120.45954 -178.03355 L 154.74045999999998 -182.83355 L 107.54045999999998 36.366449999999986 L 107.54045999999998 53.992829999999984 C 107.54045999999998 53.992829999999984 110.96115999999998 51.57347999999998 114.78955999999998 53.992829999999984 C 118.61796999999999 56.412179999999985 114.78955999999998 69.52709999999999 114.78955999999998 69.52709999999999 L 96.46367999999998 182.83355 L -59.58471000000003 182.83355 C -59.58471000000003 182.83355 -58.60965000000003 138.3779 -52.90829000000003 142.9142 C -47.20693000000003 147.45049 -61.86920000000003 69.52709999999999 -61.86920000000003 69.52709999999999 L -59.58471000000003 36.36644999999999 z" stroke-linecap="round" />
</g>
		<g transform="matrix(1 0 0 1 0 0)" id="KGfMFd9b_eAG3UGaOXxJv"  >
<path style="stroke: rgb(0,0,0); stroke-width: 0; stroke-dasharray: none; stroke-linecap: butt; stroke-dashoffset: 0; stroke-linejoin: miter; stroke-miterlimit: 4; fill: rgb(187,48,35); fill-rule: nonzero; opacity: 1;"  transform=" translate(-190.9420110247, -241.1403493497)" d="M 55.27994 164.98176 C 63.86797 169.17326 50.874860000000005 149.91553000000002 53.54027000000001 98.75659 C 56.205690000000004 47.59765 83.42706000000001 31.869169999999997 101.28802000000002 18.624139999999997 C 119.14898000000002 5.3790999999999976 167.43383 0.08108999999999611 167.43383 0.08108999999999611 C 167.43383 0.08108999999999611 193.90525 -0.9122900000000039 245.43216 4.054599999999996 C 296.95906 9.021489999999996 341.60601 26.571159999999995 341.60601 26.571159999999995 C 341.60601 26.571159999999995 376.84644000000003 49.25328 380.52683 72.92877999999999 C 384.20723000000004 96.60427999999999 379.85105000000004 140.62536999999998 374.05635 164.98176 C 368.26165000000003 189.33815 358.25696 236.56105000000002 350.87754 262.40731 C 343.49812000000003 288.25356999999997 328.54999000000004 320.44654 318.71086 326.05724 C 308.87173 331.66792999999996 292.59939 329.95698 292.59939 329.95698 L 175.38085 329.95698 L 219.30604 288.89738 C 219.30604 288.89738 246.16154 257.06919 251.73847 247.83778 C 257.3154 238.60637 263.45018 213.56115 263.45018 213.56115 L 297.68440999999996 181.0122 C 297.68440999999996 181.0122 326.28801 154.88607000000002 330.11683999999997 140.47166 C 333.94566 126.05724000000001 334.62134 104.43562000000001 334.62134 104.43562000000001 C 334.62134 104.43562000000001 332.26468 120.52213000000002 324.15657 132.36355 C 316.04846 144.20497 315.78893 146.31537 297.6844 157.76158 C 279.57986999999997 169.20779000000002 251.73844999999997 170.20138 251.73844999999997 170.20138 L 245.43213999999998 151.80131 C 245.43213999999998 151.80131 232.56641999999997 124.12572 202.52694999999997 118.85003 C 172.48747999999998 113.57433 122.00871999999997 151.80131 122.00871999999997 151.80131 C 122.00871999999997 151.80131 117.39040999999997 161.86805 97.57058999999997 140.47165 C 77.75076999999996 119.07525000000001 86.87358999999996 104.43561000000001 86.87358999999996 104.43561000000001 C 86.87358999999996 104.43561000000001 75.38709999999996 119.49859000000001 76.96367999999997 151.80131 C 78.54024999999997 184.10403 101.28799999999997 198.12931 101.28799999999997 198.12931 C 101.28799999999997 198.12931 121.33304999999997 176.48057 158.94565999999998 151.80131 C 196.55826999999996 127.12204 219.30602 146.77795 219.30602 146.77795 C 219.30602 146.77795 242.62263 177.18336 226.51323 226.05723 C 210.40383 274.9311 129.64319999999998 335.06624 129.64319999999998 335.06624 L 101.28800999999999 326.05723 C 101.28800999999999 326.05723 6.918639999999982 286.41759 0.38710999999999274 226.05723 C -4.297390000000007 182.76596 34.94275999999999 146.26104 42.068749999999994 140.21774 C 43.97483999999999 138.60125 39.16418999999999 157.11624 55.27992999999999 164.98174999999998 z M 131.77451 345.9773 C 131.77451 345.9773 260.03988 346.93884 268.58689 348.96875 C 277.1339 350.99866 272.86039999999997 360.1867 273.7151 379.31063 C 274.5698 398.43456000000003 268.58689 430.16533 268.58689 430.16533 C 268.58689 430.16533 265.38176 437.64396 241.23646 441.27644 C 217.09116 444.90891999999997 172.00569 440.10121999999996 153.20227 443.84054 C 134.39886 447.57984999999996 129.27065 438.28497999999996 129.27065 438.28497999999996 C 129.27065 438.28497999999996 129.40902 435.61404 131.77451 423.32771999999994 C 134.14 411.0413899999999 124.14245 398.11403999999993 124.14245 398.11403999999993 C 124.14245 398.11403999999993 110.46723 383.79779999999994 108.75783 377.1738699999999 C 107.04843 370.54993999999994 108.13186999999999 352.2807099999999 108.75783 348.9687399999999 C 109.3838 345.6567799999999 131.77451 345.9772899999999 131.77451 345.9772899999999 z M 291.84131 347.87558 C 291.84131 347.87558 291.84131 347.87558 291.84131 347.87559 C 291.84130000000005 347.87559 291.84130000000005 347.87559 291.84130000000005 347.87559 z M 291.84131 347.87559 C 291.85826000000003 347.87487 312.82949 346.98399 317.28773 350.10773 C 321.74777 353.23273 320.84216000000004 353.32159 320.84216000000004 359.0363 C 320.84216000000004 364.75101 320.84216000000004 381.89513999999997 320.84216000000004 381.89513999999997 C 320.84216000000004 381.89513999999997 323.09130000000005 426.55861999999996 322.64487 434.48272999999995 C 322.19844 442.40682999999996 320.97077 443.18807999999996 317.28773 451.89343999999994 C 313.60470000000004 460.5987999999999 303.33684 470.53182999999996 293.62702 474.21486999999996 C 283.91720000000004 477.89789999999994 283.39153 478.12111999999996 265.50202 480.01843999999994 C 247.61251000000001 481.9157599999999 221.8134 481.9157599999999 204.65827000000002 482.25057999999996 C 187.50313000000003 482.58539999999994 153.89487000000003 480.01843999999994 153.89487000000003 480.01843999999994 C 153.89487000000003 480.01843999999994 139.55889000000002 480.23457999999994 135.14487000000003 476.00057999999996 C 130.73085000000003 471.76658 131.77451000000002 457.27885999999995 131.77451000000002 457.27885999999995 C 131.77451000000002 457.27885999999995 143.40381000000002 458.31307999999996 165.50202000000002 459.53480999999994 C 187.60023 460.7565399999999 238.46450000000002 458.40199999999993 246.75202000000002 457.27885999999995 C 255.03954000000002 456.15572 267.31907 454.12557999999996 274.54495000000003 447.42914999999994 C 281.77083000000005 440.73272999999995 284.92167 439.7282599999999 289.16274000000004 420.64343999999994 C 293.40278000000006 401.56326999999993 291.84207000000004 347.90173999999996 291.84131 347.87558999999993 z" stroke-linecap="round" />
</g>
</g>
</g>
<g transform="matrix(1.161657948 0 0 1.1616579549 184.7241638999 349.174156565)" id="0mdT2kvDVNzTYtVMo6phM"  >
<path style="stroke: rgb(0,0,0); stroke-width: 0; stroke-dasharray: none; stroke-linecap: butt; stroke-dashoffset: 0; stroke-linejoin: miter; stroke-miterlimit: 4; fill: rgb(0,0,0); fill-rule: nonzero; opacity: 1;"  transform=" translate(-95.0189760323, -100.0365329449)" d="M 9.68333 62.24179 C 13.704509999999999 60.2312 65.21294 23.643810000000002 98.88942 11.599360000000004 C 114.94195 5.858150000000005 141.03977 -11.350229999999996 168.65848 11.599360000000004 C 196.27719 34.548950000000005 195.5662 59.917170000000006 175.51776999999998 86.312 C 137.2085 136.74819 86.72361999999998 146.46526 86.72361999999998 146.46526 C 86.72361999999998 146.46526 81.09700999999998 178.26602 78.19975999999998 192.82541 C 75.30250999999998 207.38479 62.87408999999998 195.50740000000002 62.87408999999998 195.50740000000002 C 62.87408999999998 195.50740000000002 53.87025999999998 191.67598 50.23040999999998 185.54571 C 46.590559999999975 179.41544000000002 48.31469999999998 170.98632 48.31469999999998 170.98632 L 57.12695999999998 139.95184 C 57.12695999999998 139.95184 53.10396999999998 141.77176 50.230409999999985 139.95184 C 47.35684999999999 138.13192 47.06948999999999 136.88671 50.230409999999985 131.13958 C 53.39132999999998 125.39245 62.87408999999998 116.96333 62.87408999999998 116.96333 L 80.49860999999999 52.21236999999999 L 59.04266999999999 65.23919 C 59.04266999999999 65.23919 39.31086999999999 77.30815 30.690179999999987 87.84455 C 22.069489999999988 98.38095 15.747659999999987 97.42309 12.299379999999989 90.52654 C 8.851099999999988 83.62998999999999 6.823119999999989 84.57091 4.636539999999989 80.18171 C 2.4499599999999884 75.79251 -6.983350000000011 70.57509999999999 9.683319999999988 62.241769999999995 z M 142.56757 33.0553 C 130.21124999999998 34.39629 115.74765 44.54955 115.74765 44.54955 L 98.50627 110.06679 C 98.50627 110.06679 116.72858 102.30512999999999 132.01076 89.18880999999999 C 147.29294000000002 76.07247999999998 153.80106 66.95051 159.63498 57.60149999999999 C 162.44934 53.09140999999999 167.19908 41.16109999999999 164.02542000000003 36.11922999999999 C 160.62037000000004 30.70975999999999 148.96303000000003 32.36121999999999 142.56757000000002 33.05529999999999 z" stroke-linecap="round" />
</g>
<g transform="matrix(1.161657948 0 0 1.1616579549 347.5492452169 331.3393372745)" id="g4UKAnacjaivw4ZVdCO5w"  >
<path style="stroke: rgb(0,0,0); stroke-width: 0; stroke-dasharray: none; stroke-linecap: butt; stroke-dashoffset: 0; stroke-linejoin: miter; stroke-miterlimit: 4; fill: rgb(0,0,0); fill-rule: nonzero; opacity: 1;"  transform=" translate(0, 0)" d="M 19.03572 -47.76127 C 30.22453 -62.70882 12.39236 -31.41512 23.231520000000003 -26.782250000000005 C 34.07068 -22.149380000000004 38.274300000000004 -15.506030000000004 45.61956000000001 -31.327700000000004 C 52.96482 -47.14938000000001 57.49725000000001 -59.299730000000004 57.49725000000001 -59.299730000000004 C 57.49725000000001 -59.299730000000004 68.9483 -77.1319 52.25249000000001 -80.27875 C 35.55669000000001 -83.4256 35.12786000000001 -80.97805 31.631360000000008 -73.63539 C 29.28287000000001 -68.70355 31.180290000000007 -77.65637 25.321590000000008 -80.27875 C 19.46289000000001 -82.90113000000001 17.553510000000006 -85.96172 8.196550000000009 -84.1249 C -20.302009999999992 -78.53049 -73.18456999999998 14.913560000000004 -58.93631999999999 50.49047999999999 C -44.68806999999999 86.06739999999999 -12.083169999999988 97.16879999999999 16.58816000000001 67.97299999999998 C 45.259490000000014 38.777199999999986 57.49725000000001 20.070899999999988 57.49725000000001 20.070899999999988 C 57.49725000000001 20.070899999999988 58.80844000000001 8.445029999999987 52.25249000000001 0.8401299999999878 C 45.69655000000001 -6.764770000000012 25.321590000000008 17.623349999999988 25.321590000000008 17.623349999999988 C 25.321590000000008 17.623349999999988 1.7260600000000075 39.651319999999984 -6.139119999999991 46.993979999999986 C -14.00429999999999 54.33663999999999 -34.111149999999995 63.777199999999986 -23.27198999999999 24.266709999999986 C -12.432829999999992 -15.243780000000012 7.846890000000009 -32.813710000000015 19.03570000000001 -47.76126000000001 z" stroke-linecap="round" />
</g>
</svg>