<svg xmlns="http://www.w3.org/2000/svg" xmlns:xlink="http://www.w3.org/1999/xlink" version="1.1" width="400" height="184.61538" viewBox="-0.000004062500124746293 0 325.00000812500025 150" xml:space="preserve">
<desc>Created with Fabric.js 5.3.0</desc>
<defs>
</defs>
<g transform="matrix(0.3542535447 0.0688599135 -0.0688599135 0.3542535447 54.0733734208 37.9640184189)" id="32W6fRRHrI5ULFYtNw4Hu"  >
<path style="stroke: rgb(0,0,0); stroke-width: 0; stroke-dasharray: none; stroke-linecap: butt; stroke-dashoffset: 0; stroke-linejoin: miter; stroke-miterlimit: 4; fill: rgb(0,0,0); fill-rule: nonzero; opacity: 1;"  transform=" translate(0, 0)" d="M -84.35628 81.35107 C -84.95974 98.2877 -97.47682 93.93223 -108.65559999999999 87.78751000000001 C -119.83438 81.64279 -115.38895 75.60758000000001 -107.44373999999999 51.03765000000001 C -99.49852999999999 26.467730000000014 -84.35628 -35.55876999999998 -84.35628 -35.55876999999998 C -84.35628 -35.55876999999998 -81.89053 -47.33958999999998 -62.438469999999995 -47.61355999999998 C -54.597939999999994 -47.72398999999998 -48.60021999999999 -48.26526999999998 -47.70981 -25.66252999999998 C -46.819399999999995 -3.0597899999999782 -44.63025 14.304250000000021 -44.63025 14.304250000000021 C -44.63025 14.304250000000021 -34.22548 -7.171259999999979 -22.723809999999997 -42.716569999999976 C -11.222139999999996 -78.26187999999998 -8.215649999999997 -109.16813999999998 14.821810000000003 -84.17951999999997 C 26.976740000000003 -70.99511999999997 27.217180000000003 -78.77816999999997 17.55965 -9.942549999999969 C 7.902120000000002 58.89307000000004 16.671120000000002 60.88897000000003 -5.452159999999999 54.724590000000035 C -15.34344 51.96851000000004 -20.635930000000002 53.07251000000004 -15.21543 16.676290000000037 C -9.79493 -19.719929999999962 -7.096 -29.65896999999996 -7.096 -29.65896999999996 C -7.096 -29.65896999999996 -31.95901 41.094450000000045 -40.52066000000001 60.478020000000036 C -44.75466000000001 70.06380000000004 -61.40999000000001 60.67314000000004 -65.57135000000001 54.72460000000004 C -69.73271000000001 48.77605000000004 -70.93162000000001 12.806790000000035 -70.93162000000001 12.806790000000035 C -70.93162000000001 12.806790000000035 -83.31044000000001 51.99884000000004 -84.35628000000001 81.35108000000004 z M 43.23835 31.84031 C 36.11304 35.95579 22.221029999999995 24.526919999999997 22.221029999999995 24.526919999999997 C 22.221029999999995 24.526919999999997 17.924789999999994 22.415449999999996 16.546209999999995 16.424269999999996 C 14.704829999999994 8.421759999999997 16.527669999999993 -5.924690000000005 25.906539999999993 -25.841630000000006 C 31.63978999999999 -38.016740000000006 36.52837999999999 -45.97545000000001 40.45957999999999 -51.01231000000001 C 44.39078999999999 -56.04916000000001 54.407769999999985 -49.92025000000001 54.407769999999985 -49.92025000000001 C 54.407769999999985 -49.92025000000001 60.058869999999985 -44.68833000000001 59.07606999999999 -40.32715000000001 C 58.09326999999999 -35.96597000000001 58.03183999999999 -37.88901000000001 52.44215999999999 -22.64752000000001 C 46.852479999999986 -7.40603000000001 46.545349999999985 0.000009999999988963282 46.545349999999985 0.000009999999988963282 C 46.545349999999985 0.000009999999988963282 62.906869999999984 -19.16001000000001 71.11536999999998 -30.018530000000013 C 79.32386999999999 -40.87705000000001 86.56607999999999 -53.93776000000001 91.17295999999999 -61.12449000000001 C 95.77984 -68.31122 102.2361 -62.29018000000001 107.23330999999999 -59.25686000000001 C 118.32058999999998 -52.52684000000001 116.53511999999999 -49.70064000000001 111.00685999999999 -37.10850000000001 C 108.70017999999999 -31.854390000000006 93.63307999999999 8.06499999999999 93.63307999999999 8.06499999999999 C 93.63307999999999 8.06499999999999 80.59864999999999 47.19276999999999 78.97779 54.74804999999999 C 77.35693 62.30332999999999 76.09312 70.96427 75.35602 75.63256999999999 C 74.61892 80.30086999999999 59.07607 75.63256999999999 59.07607 75.63256999999999 C 59.07607 75.63256999999999 43.7198 71.41494999999999 52.44216 42.23804999999999 C 59.45413 18.782499999999988 64.24307 10.954209999999986 65.85159 8.785999999999987 C 62.87992 12.365089999999988 49.54745 28.196259999999988 43.23834 31.840309999999988 z" stroke-linecap="round" />
</g>
<g transform="matrix(0.3045159316 0.0647268594 -0.0647268594 0.3045159316 205.2570147367 37.1537907697)" id="4Prz3bniNjggLw3YkIfrU"  >
<path style="stroke: rgb(0,0,0); stroke-width: 0; stroke-dasharray: none; stroke-linecap: butt; stroke-dashoffset: 0; stroke-linejoin: miter; stroke-miterlimit: 4; fill: rgb(0,0,0); fill-rule: nonzero; opacity: 1;"  transform=" translate(-335.3673086153, -155.0024395118)" d="M 9.68333 172.1736 C 13.704509999999999 170.16300999999999 65.21294 133.57562 98.88942 121.53117 C 114.94195 115.78996000000001 141.03977 98.58158 168.65848 121.53117 C 196.27719 144.48076 195.5662 169.84898 175.51776999999998 196.24381 C 137.2085 246.68 86.72361999999998 256.39707 86.72361999999998 256.39707 C 86.72361999999998 256.39707 81.09700999999998 288.19783 78.19975999999998 302.75721999999996 C 75.30250999999998 317.31659999999994 62.87408999999998 305.43920999999995 62.87408999999998 305.43920999999995 C 62.87408999999998 305.43920999999995 53.87025999999998 301.60778999999997 50.23040999999998 295.47751999999997 C 46.590559999999975 289.34725 48.31469999999998 280.91812999999996 48.31469999999998 280.91812999999996 L 57.12695999999998 249.88364999999996 C 57.12695999999998 249.88364999999996 53.10396999999998 251.70356999999996 50.230409999999985 249.88364999999996 C 47.35684999999999 248.06372999999996 47.06948999999999 246.81851999999995 50.230409999999985 241.07138999999995 C 53.39132999999998 235.32425999999995 62.87408999999998 226.89513999999994 62.87408999999998 226.89513999999994 L 80.49860999999999 162.14417999999995 L 59.04266999999999 175.17099999999994 C 59.04266999999999 175.17099999999994 39.31086999999999 187.23995999999994 30.690179999999987 197.77635999999993 C 22.069489999999988 208.3127599999999 15.747659999999987 207.35489999999993 12.299379999999989 200.45834999999994 C 8.851099999999988 193.56179999999995 6.823119999999989 194.50271999999993 4.636539999999989 190.11351999999994 C 2.4499599999999884 185.72431999999995 -6.983350000000011 180.50690999999995 9.683319999999988 172.17357999999993 z M 142.56757 142.98711 C 130.21124999999998 144.3281 115.74765 154.48136 115.74765 154.48136 L 98.50627 219.9986 C 98.50627 219.9986 116.72858 212.23694 132.01076 199.12062 C 147.29294000000002 186.00429 153.80106 176.88232 159.63498 167.53331 C 162.44934 163.02322 167.19908 151.09291 164.02542000000003 146.05104 C 160.62037000000004 140.64157 148.96303000000003 142.29303 142.56757000000002 142.98711 z M 252.26854 101.27059 C 280.16135 107.54674 281.56101 126.04294 281.56101 126.04294 C 281.56101 126.04294 284.59448000000003 139.32746 281.56101 154.91323 C 278.52754 170.499 269.95013 198.42786999999998 250.18026 218.51156 C 230.41039 238.59524 203.73675 230.75005000000002 197.04218 221.44043 C 190.34762 212.13081 186.79113 203.97181 187.41875 192.15173 C 188.04637 180.33165 194.95013 159.09733999999997 194.95013 159.09733999999997 C 194.95013 159.09733999999997 224.37572 94.99443999999997 252.26854 101.27058999999997 z M 243.4857 128.55341 C 237.37632000000002 131.48228 226.85097000000002 153.03039 221.14026 168.30236000000002 C 215.42955 183.57432000000003 216.70745000000002 204.28562000000002 216.70745000000002 204.28562000000002 C 216.70745000000002 204.28562000000002 220.36854000000002 215.79190000000003 230.51498000000004 200.10152000000002 C 240.66142000000005 184.41114000000002 258.23464 147.27725000000004 257.29322 134.82955000000004 C 256.3518 122.38185000000004 249.59506000000002 125.62453000000004 243.48569000000003 128.55340000000004 z M 347.12694 84.92105 C 347.13105 84.90844 351.62888 71.1276 358.30505 69.60229 C 364.98427 68.07628 373.84382 78.81701 373.84382 78.81701 C 373.84382 78.81701 358.31244 129.34607 349.21414 125.44645 C 334.1979 119.01035 335.90245 115.28647 335.90245 115.28647 C 335.90245 115.28647 344.93674999999996 99.02579999999999 341.43705 104.02846 C 340.17615 105.83086 334.45889 109.67739999999999 329.08427 119.50442 C 308.79206 156.60693 312.11999000000003 170.82043 316.74661000000003 171.81056999999998 C 321.37324 172.80070999999998 322.34726 166.03087 327.46090000000004 162.78411999999997 C 332.57453000000004 159.53736999999998 350.83752000000004 140.38151999999997 355.70765000000006 134.21268999999998 C 360.5777800000001 128.04386 370.9673900000001 136.16073999999998 370.9673900000001 136.16073999999998 C 370.9673900000001 136.16073999999998 386.0879800000001 65.70619999999998 389.01006000000007 60.51138999999998 C 391.93214000000006 55.31657999999997 403.6784200000001 65.36675999999997 410.2531000000001 67.97891999999997 C 416.8277700000001 70.59107999999998 406.68167000000005 108.29768999999997 406.68167000000005 108.29768999999997 C 406.68167000000005 108.29768999999997 432.65569000000005 60.836059999999975 454.40894000000003 39.08280999999998 C 476.16219 17.32956999999998 469.45996 4.89597999999998 487.20115000000004 19.27761999999998 C 504.94234000000006 33.65925999999998 495.64271 28.12502999999998 477.64642000000003 49.53145999999998 C 459.65013000000005 70.93789999999998 413.19837000000007 132.32367 416.60746000000006 129.72627 C 420.01655000000005 127.12887 434.05876000000006 141.73926 443.23084000000006 149.20679 C 449.98771000000005 154.70796 461.41387000000003 158.09474 468.26090000000005 161.31415 C 470.59340000000003 163.77127000000002 472.96904000000006 165.65807 475.30584000000005 167.09741000000002 C 476.79713000000004 169.10812 475.52726000000007 170.40489000000002 464.33474000000007 182.97304000000003 C 449.80552000000006 199.28797000000003 434.78929000000005 179.40161000000003 434.78929000000005 179.40161000000003 L 397.45163 149.20680000000004 C 397.45163 149.20680000000004 391.93215000000004 164.79121000000004 389.01007000000004 182.97303000000005 C 386.08799000000005 201.15485000000004 375.69838000000004 195.31069000000005 366.60747000000003 189.79121000000006 C 357.51656 184.27173000000008 368.55552000000006 149.20679000000007 368.55552000000006 149.20679000000007 C 368.55552000000006 149.20679000000007 353.29578000000004 174.85614000000007 334.1399400000001 193.36263000000008 C 314.9840900000001 211.86912000000007 291.9321500000001 190.7652300000001 286.7373400000001 179.40159000000008 C 281.54253000000006 168.03795000000008 281.54253000000006 147.9080800000001 303.94513000000006 108.29769000000009 C 326.34773000000007 68.68730000000008 336.00682000000006 75.50548000000009 339.01007000000004 77.12886000000009 C 342.01126000000005 78.75113000000009 347.11996000000005 84.91263000000009 347.12694000000005 84.92106000000008 z M 468.26089 161.31414 C 466.82776 159.80445 465.41091 158.07945 464.02935 156.11066 C 458.49804 148.22829 465.00026 141.80585 469.74164 119.60757 L 469.74164 119.60755999999999 C 474.48302 97.40928 482.99487 67.31754999999998 482.99487 67.31754999999998 L 534.1443 46.34053999999998 C 534.1443 46.34053999999998 549.6615400000001 39.156629999999986 550.23625 46.34053999999998 C 550.81096 53.52444999999998 555.12131 59.84628999999998 555.12131 59.84628999999998 C 555.12131 59.84628999999998 560.86844 63.29456999999998 539.02936 72.48996999999999 C 517.19028 81.68536999999998 505.98338 84.84628999999998 505.98338 84.84628999999998 L 500.23625 104.67387999999998 L 530.98338 93.17962999999999 C 530.98338 93.17962999999999 541.90292 85.70836999999999 545.63855 97.48996999999999 C 549.37418 109.27157999999999 539.02935 111.57042999999999 539.02935 111.57042999999999 L 495.63855 126.22559999999999 L 490.75349 140.88076999999998 C 490.75349 140.88076999999998 487.01786 147.48996999999997 501.96039 144.32905 C 516.90292 141.16813 543.3397 128.81181 543.3397 128.81181 C 543.3397 128.81181 552.5350999999999 125.71522 553.68453 138.64626 C 554.83396 151.57729 554.83396 149.78883000000002 550.23625 152.37503 C 545.63855 154.96124 497.21957000000003 170.47848000000002 497.21957000000003 170.47848000000002 C 497.21957000000003 170.47848000000002 486.72633 174.13175 475.30583 167.09739000000002 C 474.86125000000004 166.49796 474.17127 165.83508 473.42564 164.79120000000003 C 472.5707 163.59428000000003 470.70832 162.46490000000003 468.26088999999996 161.31414000000004 z M 588.51249 54.51713 C 588.51249 54.51713 571.1448899999999 64.01869 564.52495 58.8785 C 557.90501 53.738310000000006 552.99847 44.90364 552.99847 44.90364 C 552.99847 44.90364 545.75548 41.677620000000005 562.03274 35.202490000000004 C 578.31 28.727360000000004 654.86763 7.105427357601002e-15 654.86763 7.105427357601002e-15 C 654.86763 7.105427357601002e-15 662.42215 4.049840000000007 658.29442 7.476640000000007 C 654.1666899999999 10.903430000000007 652.6869399999999 12.601250000000007 652.6869399999999 12.601250000000007 C 652.6869399999999 12.601250000000007 666.16046 4.007010000000008 667.32868 9.034270000000006 C 668.4969 14.061530000000007 673.09192 10.591900000000006 669.1978399999999 16.510910000000006 C 665.3037599999999 22.429910000000007 661.7212 31.464180000000006 661.7212 31.464180000000006 C 661.7212 31.464180000000006 636.95484 38.23988000000001 628.69939 40.498450000000005 C 625.25998 41.439420000000005 622.46944 42.36097000000001 620.38411 43.11594000000001 C 623.88172 42.49497000000001 627.16487 44.46105000000001 620.5997 58.878510000000006 C 609.92992 82.30992 597.07945 126.79128 596.30063 149.84424 C 595.52181 172.8972 578.5436199999999 163.55141 578.5436199999999 163.55141 C 578.5436199999999 163.55141 568.0296 155.1402 564.5249299999999 152.33646000000002 C 561.0202599999999 149.53272 588.5124699999999 54.517150000000015 588.5124699999999 54.517150000000015 z" stroke-linecap="round" />
</g>
<g transform="matrix(0.4398302883 0.0696622741 -0.0696622741 0.4398302883 150.6319924724 108.6135652301)" id="ll2zE7cbJfIjIPRXO1Out"  >
<path style="stroke: rgb(0,0,0); stroke-width: 0; stroke-dasharray: none; stroke-linecap: butt; stroke-dashoffset: 0; stroke-linejoin: miter; stroke-miterlimit: 4; fill: rgb(0,0,0); fill-rule: nonzero; opacity: 1;"  transform=" translate(-244.9257717209, -116.547225359)" d="M 80.36346 100.64954 C 91.55227000000001 85.70199 73.7201 116.99569 84.55926000000001 121.62856 C 95.39842000000002 126.26142999999999 99.60204000000002 132.90478 106.94730000000001 117.08310999999999 C 114.29256000000001 101.26142999999999 118.82499000000001 89.11107999999999 118.82499000000001 89.11107999999999 C 118.82499000000001 89.11107999999999 130.27604000000002 71.27890999999998 113.58023000000001 68.13206 C 96.88443000000001 64.98521 96.45560000000002 67.43276 92.9591 74.77542 C 90.61061000000001 79.70725999999999 92.50803 70.75444 86.64933 68.13206 C 80.79063000000001 65.50967999999999 78.88125000000001 62.44909 69.52429000000001 64.28591 C 41.02573000000001 69.88032 -11.856829999999988 163.32437 2.3914200000000108 198.90129 C 16.63967000000001 234.47821 49.24457000000001 245.57961 77.91590000000001 216.38380999999998 C 106.58723 187.18801 118.82499000000001 168.48171 118.82499000000001 168.48171 C 118.82499000000001 168.48171 120.13618000000001 156.85584 113.58023000000001 149.25093999999999 C 107.02429000000001 141.64604 86.64933000000002 166.03415999999999 86.64933000000002 166.03415999999999 C 86.64933000000002 166.03415999999999 63.053800000000024 188.06213 55.18862000000002 195.40479 C 47.32344000000002 202.74745 27.21659000000002 212.18801 38.05575000000002 172.67752 C 48.89491000000002 133.16702999999998 69.17463000000002 115.59709999999998 80.36344000000003 100.64954999999999 z M 123.15546 117.95885 C 123.15546 117.95885 119.51556000000001 129.98814 118.88794 141.80822 C 118.26032000000001 153.6283 114.9189 160.31116 126.41347 176.69133 C 133.86267 187.3067 152.60945 186.31444 152.60945 186.31444 C 152.60945 186.31444 170.06157000000002 188.71996 184.08738 168.5177 C 198.11318 148.31544 212.79393 113.04921999999999 216.17705 100.95994999999999 C 219.56017 88.87069 216.17705 72.55257999999999 216.17705 72.55257999999999 C 216.17705 72.55257999999999 209.84915 50.293769999999995 184.08738 49.52847999999999 C 158.32560999999998 48.76318999999999 128.51459 104.45645999999999 128.51459 104.45645999999999 z M 188.76241 84.48604 C 186.90662999999998 104.9757 175.62711 126.72497000000001 161.98416999999998 149.75801 C 148.34122999999997 172.79105 148.17663999999996 153.94211 148.17663999999996 153.94211 C 148.17663999999996 153.94211 146.89873999999998 133.23081000000002 152.60944999999995 117.95885000000001 C 158.32015999999996 102.68688000000002 165.69865999999996 87.41491000000002 171.80803999999995 84.48604 C 171.80803999999995 84.48604 190.61818999999994 63.99638 188.76240999999996 84.48604 z M 198.75146 167.62785 C 198.75146 167.62785 212.51239 191.74075 220.60592 167.62785 C 228.69944 143.51494 235.71383 135.92443 235.71383 135.92443 L 261.02426 128.77893 C 261.02426 128.77893 262.49705 111.81153 261.02426 135.92443 C 259.55148 160.03734 265.72134000000005 158.00555 281.03240000000005 164.75015 C 296.34346000000005 171.49474999999998 290.47808000000003 122.48396 291.91693000000004 121.22496999999998 C 293.35578000000004 119.96597999999999 297.67233000000004 116.18899999999998 297.67233000000004 116.18899999999998 C 297.67233000000004 116.18899999999998 294.13717 127.86896999999998 299.68942000000004 135.92442999999997 C 305.24167000000006 143.97987999999998 312.01932000000005 144.71804999999998 319.88132 148.41081999999997 C 343.23933 159.38203999999996 382.47125 112.59186999999997 382.47125 112.59186999999997 C 382.47125 112.59186999999997 371.64531999999997 131.50896999999998 385.61333 135.92441999999997 C 399.58134 140.33986999999996 400.67386 137.44040999999996 401.73418000000004 133.40642999999997 C 404.40688000000006 123.23818999999997 406.11169 117.96204999999998 406.11169 117.96204999999998 L 413.76621 94.24653999999998 L 441.92219 78.77890999999998 C 441.92219 78.77890999999998 443.98203 81.20696999999998 436.78779 99.64221999999998 C 429.59353999999996 118.07746999999998 431.30217999999996 121.58466999999999 446.85972999999996 128.77891 C 462.41727999999995 135.97315 463.04677999999996 128.77891 463.04677999999996 128.77891 C 463.04677999999996 128.77891 459.8993 135.52351 472.75900999999993 74.46235999999999 C 485.61871999999994 13.401209999999992 501.7281299999999 0.3616399999999942 476.71583999999996 0.0019299999999873307 C 451.70354999999995 -0.35778000000001264 455.17386999999997 49.73214999999999 448.60911999999996 53.239339999999984 C 442.04436999999996 56.74653999999998 422.35013 67.26811999999998 422.35013 67.26811999999998 C 422.35013 67.26811999999998 424.68935999999997 56.83081999999998 428.82642 41.81282999999998 C 432.96348 26.794849999999975 438.13568 15.572119999999977 428.82642 10.073879999999978 C 410.1981 -0.928400000000023 410.14561 9.558899999999978 406.11169 20.741029999999977 C 402.07777 31.923169999999978 396.86490000000003 56.29689999999998 395.73142 61.153019999999984 C 394.59794 66.00912999999998 391.19749 80.57747999999998 391.19749 80.57747999999998 C 391.19749 80.57747999999998 315.47806 153.91958 325.72986000000003 108.99474999999998 C 335.98166000000003 64.06991999999998 364.21907000000004 44.35262999999998 353.06799 56.993279999999984 C 341.91691000000003 69.63392999999999 366.01763 74.46236999999999 366.01763 74.46236999999999 C 366.01763 74.46236999999999 365.56799 79.58827 378.96727 51.44078999999999 C 392.36654999999996 23.29330999999999 387.96008 17.98754999999999 387.96008 17.98754999999999 C 387.96008 17.98754999999999 377.52843 11.242949999999992 369.97447 12.951579999999993 C 362.42051 14.660209999999992 358.46368 32.735749999999996 358.46368 32.735749999999996 C 358.46368 32.735749999999996 356.75505 20.505529999999997 339.03922 32.735749999999996 C 321.32339 44.965959999999995 297.67231 99.64222 297.67231 99.64222 L 291.91691 99.64222 C 291.91691 99.64222 292.09729999999996 62.76199 289.69917999999996 56.993269999999995 C 284.27552 43.94654 269.07714999999996 37.743539999999996 261.02423999999996 41.812819999999995 C 256.18272999999994 44.25930999999999 248.98322999999996 52.672059999999995 237.16179999999997 70.50551999999999 C 196.98366999999996 131.11703 198.75143999999997 167.62781999999999 198.75143999999997 167.62781999999999 z M 242.52336 114.62437 L 264.36244 71.23357 L 261.77623 107.72782000000001 z" stroke-linecap="round" />
</g>
</svg>